<svg width="1440" height="986" viewBox="0 0 1440 986" fill="none" xmlns="http://www.w3.org/2000/svg">
<path d="M-859.758 879.983C-860.868 856.406 -806.334 518.747 -648.778 252.824C-507.392 14.4761 -232.302 -97.7406 47.2759 119.872C346.826 353.088 623.162 406.448 854.763 377.163C1083.37 348.006 1251.39 196.893 1330.72 97.1562C1502.77 -118.301 1697.64 51.5675 1585.82 348.962C1533.31 487.242 1435.68 515.828 1273.1 511.089C1103.15 506.135 858.829 443.154 506.297 468.203C166.281 492.613 -226.387 602.732 -460.614 775.159C-709.909 958.841 -851.45 1085.53 -859.758 879.983Z" fill="url(#paint0_linear_9_40)" fill-opacity="0.85"/>
<defs>
<linearGradient id="paint0_linear_9_40" x1="1729.54" y1="877.952" x2="-489.273" y2="368.931" gradientUnits="userSpaceOnUse">
<stop offset="0.0364583" stop-color="#FFB612"/>
<stop offset="0.316622" stop-color="#1B297B"/>
<stop offset="0.497076" stop-color="#DE3831" stop-opacity="0.71"/>
<stop offset="0.917188" stop-color="#007A4D" stop-opacity="0.9"/>
</linearGradient>
</defs>
</svg>
