<svg width="2463" height="986" viewBox="0 0 2463 986" fill="none" xmlns="http://www.w3.org/2000/svg">
<path d="M0.242195 879.983C-0.8684 856.406 53.6664 518.747 211.222 252.824C352.608 14.4761 627.698 -97.7406 907.276 119.872C1206.83 353.088 1483.16 406.448 1714.76 377.163C1943.37 348.006 2111.39 196.893 2190.72 97.1562C2362.77 -118.301 2557.64 51.5675 2445.82 348.962C2393.31 487.242 2295.68 515.828 2133.1 511.089C1963.15 506.135 1718.83 443.154 1366.3 468.203C1026.28 492.613 633.613 602.732 399.386 775.159C150.091 958.841 8.55041 1085.53 0.242195 879.983Z" fill="url(#paint0_linear_27_281)" fill-opacity="0.85"/>
<defs>
<linearGradient id="paint0_linear_27_281" x1="2589.54" y1="877.952" x2="370.727" y2="368.931" gradientUnits="userSpaceOnUse">
<stop offset="0.0364583" stop-color="#FFB612"/>
<stop offset="0.316622" stop-color="#1B297B"/>
<stop offset="0.497076" stop-color="#DE3831" stop-opacity="0.71"/>
<stop offset="0.917188" stop-color="#007A4D" stop-opacity="0.9"/>
</linearGradient>
</defs>
</svg>
